<svg xmlns="http://www.w3.org/2000/svg" viewBox="0 0 512 512">
  <defs>
    <linearGradient id="bg" x1="60" y1="40" x2="452" y2="472" gradientUnits="userSpaceOnUse">
      <stop stop-color="#153b57"/><stop offset="1" stop-color="#071018"/>
    </linearGradient>
    <radialGradient id="bomb" cx="38%" cy="30%" r="68%">
      <stop stop-color="#fff9ce"/><stop offset=".3" stop-color="#ffd65c"/><stop offset="1" stop-color="#ff735c"/>
    </radialGradient>
  </defs>
  <rect width="512" height="512" rx="108" fill="url(#bg)"/>
  <path d="M90 84h104v104H90z" fill="#ff6e78"/><path d="M204 84h104v104H204z" fill="#5fc8ff"/>
  <path d="M90 198h104v104H90z" fill="#77d98a"/><path d="M204 198h104v104H204z" fill="#ffd867"/>
  <path d="M318 198h104v104H318z" fill="#5fc8ff"/><path d="M318 312h104v104H318z" fill="#ff6e78"/>
  <g stroke="#e8fbff" stroke-width="8" opacity=".86"><path d="M142 112v48M118 136h48"/><circle cx="256" cy="136" r="25" fill="none"/><path d="m118 250 48 0M142 226v48"/><path d="m232 226 48 48m0-48-48 48"/><circle cx="370" cy="250" r="25" fill="none"/><path d="m346 364 48 0M370 340v48"/></g>
  <circle cx="246" cy="364" r="78" fill="url(#bomb)" stroke="#071018" stroke-width="15"/>
  <path d="M274 293c16-34 46-43 70-22" fill="none" stroke="#ffd867" stroke-width="18" stroke-linecap="round"/>
  <path d="m344 271 18-23m-7 34 30-4m-42 15 17 24" fill="none" stroke="#e8fbff" stroke-width="12" stroke-linecap="round"/>
  <path d="M203 371c18 18 66 18 85-9" fill="none" stroke="#8f352e" stroke-width="12" stroke-linecap="round"/>
  <circle cx="220" cy="341" r="10" fill="#8f352e"/><circle cx="271" cy="341" r="10" fill="#8f352e"/>
</svg>
